<svg viewBox="0 0 606 110" fill="none" xmlns="http://www.w3.org/2000/svg">
<path fill-rule="evenodd" clip-rule="evenodd" d="M46.1928 1.10944C48.1762 -0.49162 51.0465 -0.34436 52.8556 1.45128C58.0564 6.61326 63.3977 10.235 68.7757 13.7858C69.0852 13.9901 69.3957 14.1947 69.707 14.3998C74.6944 17.6865 79.8872 21.1086 84.3774 25.6397C93.6429 34.9098 98.8285 47.5054 98.8334 60.5651C98.9216 73.6533 93.7232 86.269 84.3605 95.5439C65.0739 114.822 33.7477 114.819 14.4645 95.5356C-4.82149 76.2496 -4.82149 44.9171 14.4645 25.6312C15.6529 24.4427 17.3589 23.9309 19.0053 24.2688C20.6406 24.6045 21.9997 25.7338 22.6296 27.2781C22.6307 27.2808 22.6324 27.2847 22.6347 27.2899C22.6459 27.3159 22.6711 27.3733 22.7111 27.4592C22.7913 27.6312 22.9302 27.9159 23.1344 28.2899C23.5437 29.0394 24.209 30.136 25.1803 31.3974C26.0058 32.4694 27.0468 33.6537 28.3353 34.8446C29.7636 23.9542 34.2305 10.7657 46.1928 1.10944ZM17.3548 37.6247C6.31097 53.0233 7.70455 74.6335 21.5355 88.4645C36.9163 103.845 61.9171 103.845 77.2978 88.4645L77.3155 88.447C84.7762 81.0601 88.9072 71.0201 88.8335 60.6188L88.8334 60.5834C88.8334 50.1535 84.6893 40.0937 77.2978 32.7022L77.2809 32.6853C73.5441 28.9125 69.1578 26.0185 63.9314 22.5701C63.7111 22.4247 63.4893 22.2784 63.266 22.131C58.9011 19.2491 54.106 16.0342 49.285 11.7931C39.905 21.4153 37.75 34.4238 37.75 43.9167C37.75 45.6523 36.85 47.2637 35.3723 48.1739C33.8945 49.0841 32.0505 49.1629 30.5005 48.3821C24.2372 45.2269 20.0227 41.0585 17.3548 37.6247ZM44.8495 47.8072C45.5501 45.7465 47.5033 44.3758 49.6795 44.4176C55.2644 44.525 60.7595 46.7718 64.7855 50.7978C73.2382 59.2505 73.2382 72.9996 64.7855 81.4522C56.3329 89.9049 42.5838 89.9049 34.1311 81.4522C29.9222 77.2433 27.75 71.7125 27.75 66.0834C27.75 63.3219 29.9886 61.0834 32.75 61.0834H40.3356L44.8495 47.8072ZM52.967 54.9975L48.6505 67.6929C47.9613 69.7201 46.0578 71.0834 43.9167 71.0834H38.869C39.4344 72.2763 40.213 73.392 41.2022 74.3812C45.7496 78.9286 53.1671 78.9286 57.7145 74.3812C62.2618 69.8338 62.2618 62.4163 57.7145 57.8689C56.3979 56.5523 54.7543 55.5714 52.967 54.9975Z"/>
<path d="M129.701 93.922C126.929 93.922 124.773 93.152 123.233 91.6891C121.693 90.2262 121 87.9162 121 85.0674V26.7805C121 23.9316 121.77 21.6987 123.233 20.2358C124.773 18.6958 126.929 18.0029 129.701 18.0029H155.803C161.269 18.0029 165.889 18.8498 169.585 20.4668C173.358 21.9297 176.207 24.2396 178.209 27.1655C180.211 30.0914 181.212 33.6333 181.212 37.6371C181.212 42.18 179.903 46.0298 177.362 49.1867C174.744 52.3436 171.279 54.4995 166.813 55.5775V53.9605C171.972 54.7305 175.976 56.8094 178.902 60.0433C181.751 63.2772 183.214 67.512 183.214 72.5938C183.214 79.2926 180.904 84.5284 176.284 88.3012C171.664 92.0741 165.196 93.999 157.035 93.999H129.701V93.922ZM137.092 49.0327H152.954C157.112 49.0327 160.192 48.2627 162.193 46.7228C164.195 45.1828 165.196 42.8729 165.196 39.7931C165.196 36.6362 164.195 34.2493 162.193 32.7093C160.192 31.1694 157.112 30.3994 152.954 30.3994H137.092V49.0327ZM137.092 81.3715H154.879C159.114 81.3715 162.27 80.6015 164.272 78.9846C166.274 77.3676 167.275 74.9037 167.275 71.5929C167.275 68.128 166.274 65.5871 164.272 63.9701C162.27 62.3532 159.114 61.5832 154.879 61.5832H137.092V81.3715Z"/>
<path d="M213.628 95C207.237 95 202.463 93.2291 199.306 89.6872C196.149 86.1454 194.532 80.9096 194.532 73.8258V25.2406C194.532 22.5457 195.225 20.4668 196.688 19.0809C198.151 17.6949 200.076 17.002 202.617 17.002C205.312 17.002 207.314 17.6949 208.7 19.0809C210.086 20.4668 210.779 22.4687 210.779 25.2406V73.2098C210.779 76.1357 211.395 78.2917 212.704 79.7546C213.935 81.1405 215.629 81.8335 217.708 81.8335C218.247 81.8335 218.863 81.8335 219.402 81.7565C219.941 81.6795 220.48 81.6025 220.942 81.5255C222.097 81.4485 222.867 81.8335 223.406 82.6805C223.868 83.5275 224.099 85.1444 224.099 87.6853C224.099 89.7642 223.637 91.3812 222.79 92.5361C221.943 93.6911 220.634 94.3841 218.786 94.692C218.17 94.769 217.323 94.846 216.399 94.923C215.475 94.923 214.551 95 213.628 95Z"/>
<path d="M248.43 95C244.426 95 240.885 94.23 237.882 92.7671C234.879 91.3041 232.492 89.3022 230.798 86.7613C229.104 84.2204 228.18 81.2945 228.18 77.9836C228.18 74.1338 229.181 71.0539 231.183 68.821C233.185 66.5881 236.419 64.9711 240.962 63.9702C245.427 62.9692 251.433 62.4302 258.902 62.4302H264.6V70.8229H258.979C255.206 70.8229 252.28 71.0539 250.124 71.4389C247.968 71.8239 246.351 72.5168 245.35 73.5178C244.349 74.5188 243.81 75.7507 243.81 77.3676C243.81 79.2926 244.503 80.9095 245.889 82.2185C247.275 83.5274 249.277 84.1434 251.895 84.1434C253.974 84.1434 255.822 83.6814 257.516 82.7574C259.133 81.8335 260.442 80.5245 261.366 78.9076C262.29 77.2907 262.752 75.2887 262.752 72.9788V60.6593C262.752 57.5024 262.059 55.2695 260.596 53.8835C259.133 52.5746 256.669 51.8816 253.127 51.8816C251.279 51.8816 249.2 52.1126 246.967 52.4976C244.734 52.9596 242.193 53.7295 239.499 54.8845C237.882 55.5005 236.419 55.6545 235.264 55.3465C234.109 54.9615 233.185 54.2685 232.492 53.2676C231.876 52.1896 231.491 51.0346 231.491 49.8027C231.491 48.4937 231.876 47.2618 232.569 46.1068C233.262 44.9519 234.494 44.1049 236.265 43.4889C239.576 42.18 242.732 41.256 245.735 40.717C248.738 40.178 251.433 39.8701 253.897 39.8701C259.441 39.8701 263.984 40.717 267.603 42.257C271.221 43.8739 273.916 46.3378 275.687 49.7257C277.458 53.1136 278.305 57.3484 278.305 62.5842V86.6073C278.305 89.3022 277.612 91.3041 276.303 92.6901C274.994 94.076 273.146 94.769 270.759 94.769C268.295 94.769 266.448 94.076 265.062 92.6901C263.753 91.3041 263.06 89.2252 263.06 86.6073V82.6035L263.83 83.3734C263.368 85.7603 262.444 87.7623 261.058 89.5332C259.672 91.2271 257.901 92.6131 255.745 93.614C253.666 94.538 251.202 95 248.43 95Z"/>
<path d="M295.013 93.922C293.397 93.922 292.088 93.5371 291.01 92.6901C289.932 91.8431 289.239 90.7652 288.854 89.5332C288.469 88.2243 288.546 86.8383 288.931 85.3754C289.316 83.9124 290.163 82.4495 291.395 80.9865L317.805 49.4177V53.1136H294.398C292.396 53.1136 290.856 52.5746 289.778 51.5736C288.7 50.4957 288.238 49.0327 288.238 47.1078C288.238 45.1829 288.777 43.7199 289.778 42.719C290.856 41.718 292.319 41.179 294.398 41.179H325.658C327.429 41.179 328.969 41.564 330.124 42.334C331.279 43.1039 332.126 44.1819 332.511 45.4909C332.973 46.7998 332.973 48.1858 332.588 49.7257C332.203 51.2656 331.433 52.5746 330.278 53.8065L303.252 86.1453V81.9105H328.276C332.357 81.9105 334.436 83.9124 334.436 87.9163C334.436 89.8412 333.897 91.3811 332.896 92.3821C331.818 93.4601 330.355 93.922 328.276 93.922H295.013Z"/>
<path d="M368.623 95C362.386 95 356.996 93.9221 352.53 91.6891C348.065 89.4562 344.6 86.2993 342.213 82.1415C339.826 77.9836 338.594 73.1328 338.594 67.435C338.594 61.9683 339.749 57.1944 342.059 53.1136C344.369 49.0327 347.603 45.8759 351.683 43.4889C355.764 41.102 360.384 39.9471 365.62 39.9471C369.547 39.9471 373.089 40.5631 376.091 41.872C379.171 43.104 381.789 44.9519 384.022 47.2618C386.255 49.5717 387.949 52.4206 389.104 55.8085C390.259 59.1194 390.798 62.8922 390.798 66.9731C390.798 68.359 390.336 69.36 389.489 70.053C388.642 70.7459 387.333 71.0539 385.716 71.0539H351.991V62.5072H379.017L377.323 64.0472C377.323 61.1213 376.861 58.6574 376.014 56.6555C375.168 54.6535 373.936 53.1906 372.319 52.1126C370.702 51.0347 368.7 50.5727 366.313 50.5727C363.618 50.5727 361.385 51.1887 359.537 52.4206C357.689 53.6526 356.226 55.4235 355.225 57.7334C354.224 60.0433 353.685 62.8922 353.685 66.1261V66.9731C353.685 72.4399 354.917 76.4437 357.458 79.0616C359.999 81.6795 363.772 82.9115 368.854 82.9115C370.548 82.9115 372.55 82.6805 374.706 82.2955C376.861 81.8335 379.017 81.2175 381.019 80.2166C382.713 79.4466 384.253 79.1386 385.408 79.4466C386.64 79.7546 387.641 80.2936 388.411 81.2175C389.181 82.1415 389.566 83.1425 389.643 84.3744C389.72 85.6064 389.412 86.7613 388.873 87.9933C388.257 89.1482 387.256 90.1492 385.793 90.9962C383.252 92.4591 380.48 93.4601 377.4 94.076C374.321 94.692 371.395 95 368.623 95Z"/>
<path d="M410.124 93.922C407.429 93.922 405.427 93.152 403.887 91.6891C402.424 90.1492 401.654 88.0702 401.654 85.4523V26.2416C401.654 23.4697 402.347 21.3137 403.81 19.8508C405.273 18.3879 407.275 17.6949 409.97 17.6949C412.665 17.6949 414.821 18.3879 416.207 19.8508C417.67 21.3137 418.363 23.3927 418.363 26.2416V79.8315H447.237C449.547 79.8315 451.318 80.4475 452.55 81.6795C453.782 82.9114 454.397 84.6054 454.397 86.8383C454.397 89.1482 453.782 90.9191 452.55 92.1511C451.318 93.383 449.547 93.999 447.237 93.999H410.124V93.922Z"/>
<path d="M470.182 31.4004C467.256 31.4004 464.946 30.7074 463.406 29.2445C461.789 27.7815 461.019 25.7796 461.019 23.0847C461.019 20.4668 461.789 18.4649 463.406 17.0789C465.023 15.693 467.256 15 470.182 15C473.185 15 475.495 15.693 477.112 17.0789C478.729 18.4649 479.499 20.4668 479.499 23.0847C479.499 25.7796 478.729 27.7815 477.112 29.2445C475.495 30.6304 473.185 31.4004 470.182 31.4004ZM470.182 94.769C467.641 94.769 465.716 93.999 464.253 92.4591C462.79 90.9191 462.097 88.7632 462.097 85.9143V48.9557C462.097 46.1068 462.79 43.8739 464.253 42.411C465.716 40.948 467.641 40.1781 470.182 40.1781C472.877 40.1781 474.879 40.948 476.265 42.411C477.651 43.8739 478.344 46.0298 478.344 48.9557V85.9143C478.344 88.6862 477.651 90.9191 476.265 92.4591C474.956 93.999 472.877 94.769 470.182 94.769Z"/>
<path d="M499.056 94.769C496.515 94.769 494.59 94.076 493.127 92.6901C491.664 91.3042 490.971 89.2252 490.971 86.6073V48.3398C490.971 45.6449 491.664 43.6429 493.05 42.257C494.436 40.871 496.438 40.1781 499.056 40.1781C501.597 40.1781 503.522 40.871 504.908 42.257C506.294 43.6429 506.987 45.7219 506.987 48.3398V54.4995L505.832 51.0347C507.449 47.4158 509.835 44.7209 513.146 42.796C516.457 40.871 520.153 39.9471 524.234 39.9471C528.546 39.9471 532.011 40.794 534.705 42.334C537.4 43.9509 539.402 46.4148 540.788 49.7257C542.174 53.0366 542.867 57.1944 542.867 62.1992V86.6073C542.867 89.3022 542.174 91.3042 540.788 92.6901C539.402 94.076 537.4 94.769 534.783 94.769C532.242 94.769 530.24 94.076 528.777 92.6901C527.314 91.3042 526.544 89.2252 526.544 86.6073V62.8922C526.544 59.1964 525.851 56.5785 524.542 54.9615C523.233 53.3446 521.231 52.5746 518.536 52.5746C515.071 52.5746 512.376 53.6526 510.297 55.8085C508.218 57.9644 507.218 60.8133 507.218 64.4322V86.6073C507.218 92.0741 504.523 94.769 499.056 94.769Z"/>
<path d="M563.194 94.769C560.654 94.769 558.729 94.0761 557.266 92.6901C555.803 91.3042 555.11 89.2252 555.11 86.6073V25.2406C555.11 22.5457 555.803 20.4668 557.266 19.0809C558.729 17.6949 560.654 17.002 563.194 17.002C565.889 17.002 567.891 17.6949 569.277 19.0809C570.663 20.4668 571.356 22.4687 571.356 25.2406V62.9692H571.587L587.218 45.6449C588.834 43.7969 590.22 42.411 591.529 41.487C592.838 40.5631 594.609 40.1011 596.919 40.1011C599.229 40.1011 600.923 40.6401 602.078 41.795C603.233 42.95 603.849 44.3359 603.849 45.9529C603.849 47.5698 603.156 49.2637 601.77 50.9577L585.293 69.206V63.0462L603.618 84.1434C605.004 85.8374 605.543 87.5313 605.389 89.2252C605.235 90.8422 604.465 92.2281 603.156 93.2291C601.847 94.2301 600.153 94.769 598.228 94.769C595.764 94.769 593.839 94.3071 592.376 93.3831C590.913 92.4591 589.373 91.0732 587.91 89.2252L571.664 70.9769H571.433V86.6073C571.356 92.0741 568.661 94.769 563.194 94.769Z"/>
</svg>
