<svg version="1.1"
      xmlns="http://www.w3.org/2000/svg"
      xmlns:xlink="http://www.w3.org/1999/xlink"  id="snapshot-36551" width="200" height="200" viewBox="0 0 200 200"><desc>This image was made on Patterninja.com</desc><defs>
<!-- image 75897 -->
<g id="transformed-75897" data-image="75897" transform="translate(42, 42) rotate(45, 54, 60)"><g><svg version="1.1" width="108px" height="120px" viewBox="0 0 108 120"><g id="original-75897"><svg xmlns="http://www.w3.org/2000/svg" fill="none" viewBox="0 0 99 110" xmlns:xlink="http://www.w3.org/1999/xlink" version="1.1" preserveAspectRatio="xMidYMid meet">
  <path fill-rule="evenodd" d="M46.193 1.11a5 5 0 0 1 6.663.341c5.2 5.162 10.542 8.784 15.92 12.335l.931.614c4.987 3.286 10.18 6.709 14.67 11.24a49.473 49.473 0 0 1 14.456 34.925 48.782 48.782 0 0 1-14.472 34.979c-19.287 19.278-50.613 19.275-69.897-.008-19.285-19.286-19.285-50.619 0-69.905a5 5 0 0 1 8.17 1.659l.077.17c.08.171.22.456.423.83a24.05 24.05 0 0 0 2.046 3.107 27.795 27.795 0 0 0 3.155 3.448c1.429-10.89 5.895-24.08 17.858-33.736zM17.355 37.624c-11.044 15.398-9.65 37.008 4.18 50.84 15.381 15.38 40.382 15.38 55.763 0l.017-.018a38.783 38.783 0 0 0 11.519-27.828v-.036c0-10.43-4.145-20.49-11.536-27.88l-.017-.018c-3.737-3.773-8.123-6.667-13.35-10.115l-.665-.439c-4.365-2.882-9.16-6.097-13.981-10.338-9.38 9.622-11.535 22.63-11.535 32.124a5 5 0 0 1-7.25 4.465c-6.263-3.155-10.477-7.323-13.145-10.757zm27.494 10.182a5 5 0 0 1 4.83-3.39c5.585.108 11.08 2.355 15.106 6.38 8.453 8.454 8.453 22.203 0 30.655-8.452 8.453-22.201 8.453-30.654 0a21.656 21.656 0 0 1-6.381-15.369 5 5 0 0 1 5-5h7.586l4.514-13.276zm8.118 7.19l-4.316 12.696a5 5 0 0 1-4.734 3.39h-5.048a11.818 11.818 0 0 0 2.333 3.298c4.548 4.548 11.965 4.548 16.513 0 4.547-4.547 4.547-11.965 0-16.512a11.837 11.837 0 0 0-4.748-2.871z" clip-rule="evenodd" fill="rgba(221, 74, 72, 0.5)" stroke="none"/>
</svg>
</g></svg></g></g>
<!-- /image 75897 -->

<!-- image 97360 -->
<g id="transformed-97360" data-image="97360" transform="translate(-45.188604758279546, -50.20956084253277) rotate(315, 45.188604758279546, 50.20956084253277)"><g><svg version="1.1" width="90.37720951655909px" height="100.41912168506553px" viewBox="0 0 90.37720951655909 100.41912168506553"><g id="original-97360"><svg xmlns="http://www.w3.org/2000/svg" fill="none" viewBox="0 0 99 110" xmlns:xlink="http://www.w3.org/1999/xlink" version="1.1" preserveAspectRatio="xMidYMid meet">
  <path fill-rule="evenodd" d="M46.193 1.11a5 5 0 0 1 6.663.341c5.2 5.162 10.542 8.784 15.92 12.335l.931.614c4.987 3.286 10.18 6.709 14.67 11.24a49.473 49.473 0 0 1 14.456 34.925 48.782 48.782 0 0 1-14.472 34.979c-19.287 19.278-50.613 19.275-69.897-.008-19.285-19.286-19.285-50.619 0-69.905a5 5 0 0 1 8.17 1.659l.077.17c.08.171.22.456.423.83a24.05 24.05 0 0 0 2.046 3.107 27.795 27.795 0 0 0 3.155 3.448c1.429-10.89 5.895-24.08 17.858-33.736zM17.355 37.624c-11.044 15.398-9.65 37.008 4.18 50.84 15.381 15.38 40.382 15.38 55.763 0l.017-.018a38.783 38.783 0 0 0 11.519-27.828v-.036c0-10.43-4.145-20.49-11.536-27.88l-.017-.018c-3.737-3.773-8.123-6.667-13.35-10.115l-.665-.439c-4.365-2.882-9.16-6.097-13.981-10.338-9.38 9.622-11.535 22.63-11.535 32.124a5 5 0 0 1-7.25 4.465c-6.263-3.155-10.477-7.323-13.145-10.757zm27.494 10.182a5 5 0 0 1 4.83-3.39c5.585.108 11.08 2.355 15.106 6.38 8.453 8.454 8.453 22.203 0 30.655-8.452 8.453-22.201 8.453-30.654 0a21.656 21.656 0 0 1-6.381-15.369 5 5 0 0 1 5-5h7.586l4.514-13.276zm8.118 7.19l-4.316 12.696a5 5 0 0 1-4.734 3.39h-5.048a11.818 11.818 0 0 0 2.333 3.298c4.548 4.548 11.965 4.548 16.513 0 4.547-4.547 4.547-11.965 0-16.512a11.837 11.837 0 0 0-4.748-2.871z" clip-rule="evenodd" fill="rgba(211, 211, 211, 1)" stroke="none"/>
</svg>
</g></svg></g></g>
<!-- /image 97360 -->
</defs><rect x="0" y="0" width="200" height="200" fill="rgba(250, 251, 252, 1)"></rect><use xlink:href="#transformed-75897" transform="translate(-200, -200)"></use><use xlink:href="#transformed-75897" transform="translate(0, -200)"></use><use xlink:href="#transformed-75897" transform="translate(200, -200)"></use><use xlink:href="#transformed-75897" transform="translate(-200, 0)"></use><use xlink:href="#transformed-75897" transform="translate(0, 0)"></use><use xlink:href="#transformed-75897" transform="translate(200, 0)"></use><use xlink:href="#transformed-75897" transform="translate(-200, 200)"></use><use xlink:href="#transformed-75897" transform="translate(0, 200)"></use><use xlink:href="#transformed-75897" transform="translate(200, 200)"></use><use xlink:href="#transformed-97360" transform="translate(-200, -200)"></use><use xlink:href="#transformed-97360" transform="translate(0, -200)"></use><use xlink:href="#transformed-97360" transform="translate(200, -200)"></use><use xlink:href="#transformed-97360" transform="translate(-200, 0)"></use><use xlink:href="#transformed-97360" transform="translate(0, 0)"></use><use xlink:href="#transformed-97360" transform="translate(200, 0)"></use><use xlink:href="#transformed-97360" transform="translate(-200, 200)"></use><use xlink:href="#transformed-97360" transform="translate(0, 200)"></use><use xlink:href="#transformed-97360" transform="translate(200, 200)"></use></svg>